<svg xmlns="http://www.w3.org/2000/svg" width="1280" height="900" viewBox="0 0 1280 900">
  <rect width="1280" height="900" fill="#fbfbff"/><rect width="260" height="900" fill="#fff" stroke="#e6e8f1"/>
  <text x="42" y="72" fill="#111b46" font-family="Arial" font-size="27" font-weight="900">+ ResumeAI</text><rect x="32" y="328" width="196" height="44" rx="12" fill="#f2efff"/><text x="62" y="356" fill="#6547ff" font-family="Arial" font-size="15" font-weight="900">AI Writer</text>
  <text x="316" y="78" fill="#111b46" font-family="Arial" font-size="36" font-weight="900">AI Writer</text><text x="316" y="112" fill="#66708f" font-family="Arial" font-size="17">Generate job descriptions, summaries, and bullet points with AI.</text>
  <rect x="316" y="164" width="610" height="322" rx="20" fill="#fff" stroke="#e6e8f1"/><text x="354" y="224" fill="#111b46" font-family="Arial" font-size="22" font-weight="900">Content prompt</text>
  <g fill="#fff" stroke="#dfe3ee"><rect x="354" y="252" width="534" height="54" rx="12"/><rect x="354" y="340" width="534" height="54" rx="12"/><rect x="354" y="428" width="534" height="28" rx="8"/></g>
  <text x="382" y="286" fill="#66708f" font-family="Arial" font-size="15" font-weight="800">Work Experience</text><text x="382" y="374" fill="#66708f" font-family="Arial" font-size="15" font-weight="800">Senior Product Designer</text><rect x="354" y="504" width="534" height="54" rx="14" fill="#6547ff"/><text x="558" y="538" fill="#fff" font-family="Arial" font-size="17" font-weight="900">Generate Content</text>
  <text x="316" y="630" fill="#111b46" font-family="Arial" font-size="26" font-weight="900">Suggested Content</text>
  <g fill="#fff" stroke="#e6e8f1"><rect x="316" y="660" width="610" height="64" rx="16"/><rect x="316" y="742" width="610" height="64" rx="16"/><rect x="316" y="824" width="610" height="64" rx="16"/></g>
  <g font-family="Arial" font-size="15" font-weight="700" fill="#66708f"><text x="344" y="699">Designed user-centered interfaces that improved engagement by 40%.</text><text x="344" y="781">Collaborated with product and engineering to ship new features.</text><text x="344" y="863">Created prototypes, wireframes, and high-fidelity UI systems.</text></g>
  <rect x="970" y="164" width="242" height="224" rx="20" fill="#f4f1ff"/><text x="1010" y="226" fill="#6547ff" font-family="Arial" font-size="24" font-weight="900">Tips</text><text x="1010" y="270" fill="#66708f" font-family="Arial" font-size="15" font-weight="700">Add numbers.</text><text x="1010" y="302" fill="#66708f" font-family="Arial" font-size="15" font-weight="700">Keep bullets concise.</text>
  <rect x="970" y="430" width="242" height="250" rx="20" fill="#f4f1ff"/><rect x="1010" y="478" width="162" height="92" rx="18" fill="#fff"/><text x="1068" y="536" fill="#f59e0b" font-family="Arial" font-size="52" font-weight="900">!</text><text x="1010" y="626" fill="#111b46" font-family="Arial" font-size="21" font-weight="900">Need inspiration?</text>
</svg>
